<svg xmlns="http://www.w3.org/2000/svg" width="122" height="50" viewBox="0 0 122 50"><g fill="none" fill-rule="evenodd"><g fill="#FFF"><g><g><path d="M55.319 28.723L64.894 28.723 64.894 22.34 55.319 22.34zM119.833 37.672c.067-.005.127-.016.178-.037.051-.02.092-.052.124-.096.032-.045.047-.106.047-.183 0-.066-.012-.119-.035-.16-.026-.039-.058-.07-.1-.095-.041-.025-.087-.041-.14-.049-.05-.01-.105-.014-.162-.014h-.416v.64h.3c.07 0 .136-.002.204-.006zm-.732 1.02v-1.847h.708c.21 0 .361.044.457.13.095.088.144.215.144.38 0 .081-.012.151-.037.21-.024.061-.058.112-.1.154-.043.04-.093.075-.148.099-.056.023-.115.042-.18.053l.551.82h-.266l-.52-.82h-.381v.82h-.228zm.04-2.187c-.163.072-.306.17-.426.292-.12.124-.214.268-.28.434-.068.166-.101.346-.101.537 0 .192.033.371.1.537.067.166.162.31.281.434.12.123.263.22.427.292.164.072.344.107.54.107.19 0 .368-.035.533-.107.164-.072.306-.17.426-.292.12-.123.215-.268.283-.434.07-.166.103-.345.103-.537 0-.191-.034-.37-.103-.537-.068-.166-.163-.31-.283-.434-.12-.122-.262-.22-.426-.292-.165-.071-.343-.106-.534-.106-.195 0-.375.035-.54.106zm1.17-.212c.194.082.363.195.507.34.143.144.255.313.336.508.082.195.123.404.123.627 0 .227-.041.436-.123.63-.081.193-.193.361-.336.504-.144.143-.313.255-.506.337-.195.082-.406.123-.63.123-.228 0-.438-.041-.633-.123-.193-.082-.362-.194-.506-.337-.143-.143-.254-.311-.336-.504-.081-.194-.122-.403-.122-.63 0-.223.04-.432.122-.627.082-.195.193-.364.336-.508.144-.145.313-.258.506-.34.195-.082.405-.123.632-.123.225 0 .436.041.63.123zM34.33 27.456c-.234-.797-.373-1.745-.344-2.651.125-3.944 2.922-7.143 6.246-7.143 2.458 0 4.249 1.382 5.146 3.48l-11.049 6.314zm17.798-6.388c0-1.12-.327-2.282-.816-3.196l-.165-.29c-1.048-1.855-2.967-4.183-6.286-5.289-.684-.227-2.259-.658-4.117-.658-3.31 0-5.593 1.197-6.638 1.813-3.136 1.909-4.672 4.415-5.324 5.808-1.409 3.01-1.52 5.388-1.52 6.743 0 2.051.579 3.976 1.025 5.209l.006.014c-.275.156-.537.301-.769.423-.923.477-2.186.954-3.284.954-1.59 0-2.994-.741-3.941-1.884l-.053-.064c-.722-.9-1.172-2.03-1.172-3.28 0-2.127 1.343-3.744 3.108-4.996.44-.314 2.005-1.477 2.598-2.02 2.815-2.579 4.131-5.76 4.131-9.222 0-2.274-.598-4.395-1.73-6.132C24.655 1.028 20.38.19 16.937.054 15.935 0 13.983 0 13.983 0H0v39.362h7.722l.052-32.218h6.282c2.403 0 4.308.24 5.682 1.844.714.837 1.075 1.674 1.075 2.84 0 1.18-.34 2.091-.899 2.848-.965 1.305-2.887 2.887-3.719 3.547-3.71 2.94-4.716 6.771-4.519 10.462.117 2.184.968 4.267 2.216 5.92 2.297 3.118 6.03 5.005 10.635 4.682 2.392-.169 5.598-1.53 7.552-2.6l.207.172c1.938 1.379 4.782 2.503 8.743 2.503h9.326v-6.64h-9.326c-1.507 0-2.26-.304-2.26-.304l10.25-5.814c1.872-1.09 3.109-3.167 3.109-5.536zM114.852 29.764c-3.718 2.042-6.619 2.8-11.215 2.8h-2.784l10.234-13.57c.803-1.172 1.088-2.644.78-4.037-.276-1.25-1.011-2.255-2.02-2.756-.757-.377-1.585-.494-2.215-.494l-16.698-.005c-1.195 0-2.294.145-3.615.816-1.994 1.013-3.229 2.437-3.733 4.61-.292 1.257-.397 2.287-.402 4.327l-.012 7.418c0 2.227-1.77 4.033-3.954 4.033-2.183 0-4.178-1.806-4.178-4.033l-.017-16.985-6.938.028.004 15.84c.003.896.043 1.676.12 2.386.337 3.045 1.532 5.336 3.655 7.004 1.704 1.34 3.778 2.057 6.338 2.191 2.788.148 5.321-.373 7.283-1.59 2.807-1.738 4.497-4.423 4.497-7.733l.003-9.094c0-1.345 1.221-2.542 2.613-2.542h10.988l-9.829 13.013c-.844 1.12-1.253 2.154-1.29 3.256-.042 1.26.316 2.408 1.006 3.233.725.865 1.784 1.345 2.985 1.35h3.304c8.154 0 11.512-.62 15.132-2.513l-.042-6.953zM69.536 48.596L71.277 48.596 71.277 50 68.085 50 68.085 43.617 69.536 43.617zM73.802 45.021L73.802 46.086 75.442 46.086 75.442 47.49 73.802 47.49 73.802 48.595 75.532 48.595 75.532 50 72.34 50 72.34 43.617 75.532 43.617 75.532 45.021z" transform="translate(-80 -45) translate(80 45)"></path><path d="M78.956 45.343c-.323-.283-.639-.413-.977-.413-.37 0-.646.226-.646.527 0 .112.046.218.137.299.101.097.239.17.386.218.084.033.261.081.515.163.53.17.8.324 1.047.607.262.291.37.616.37 1.085 0 .373-.093.843-.216 1.102C79.249 49.587 78.47 50 77.54 50c-.453 0-.838-.088-1.309-.291-.307-.13-.422-.203-.7-.404l.64-1.265c.461.421.884.616 1.322.616.447 0 .725-.235.725-.6 0-.121-.047-.243-.124-.324-.154-.161-.292-.226-.777-.372-.477-.145-.661-.22-.877-.34-.454-.244-.678-.697-.678-1.353 0-1.223.793-2.05 1.963-2.05.608 0 1.254.17 1.83.495l-.599 1.23zM83.212 45.343c-.324-.283-.64-.413-.978-.413-.369 0-.646.226-.646.527 0 .112.046.218.138.299.1.097.238.17.385.218.085.033.262.081.516.163.53.17.8.324 1.046.607.262.291.37.616.37 1.085 0 .373-.093.843-.216 1.102-.323.656-1.1 1.069-2.032 1.069-.454 0-.838-.088-1.308-.291-.307-.13-.423-.203-.7-.404l.639-1.265c.461.421.884.616 1.323.616.447 0 .724-.235.724-.6 0-.121-.047-.243-.123-.324-.154-.161-.293-.226-.778-.372-.477-.145-.661-.22-.877-.34-.453-.244-.677-.697-.677-1.353 0-1.223.792-2.05 1.962-2.05.608 0 1.254.17 1.83.495l-.598 1.23zM86.17 50L87.234 50 87.234 43.617 86.17 43.617zM91.722 45.343c-.323-.283-.639-.413-.977-.413-.37 0-.646.226-.646.527 0 .112.046.218.138.299.1.097.238.17.385.218.084.033.261.081.515.163.531.17.8.324 1.047.607.261.291.37.616.37 1.085 0 .373-.093.843-.216 1.102-.324.656-1.1 1.069-2.032 1.069-.454 0-.839-.088-1.308-.291-.308-.13-.423-.203-.7-.404l.638-1.265c.462.421.885.616 1.324.616.446 0 .723-.235.723-.6 0-.121-.046-.243-.123-.324-.154-.161-.292-.226-.777-.372-.477-.145-.661-.22-.877-.34-.454-.244-.678-.697-.678-1.353 0-1.223.793-2.05 1.963-2.05.608 0 1.254.17 1.831.495l-.6 1.23zM109.933 47.745L111.12 43.617 112.277 43.617 113.382 47.745 114.442 43.617 115.957 43.617 114.166 50 112.688 50 111.665 46.307 110.59 50 109.111 50 107.447 43.617 108.963 43.617zM104.733 43.62v-.003h-3.697s-1.38 0-1.38 1.398v2.482l-2.532-3.88h-1.38v6.34h1.38v-3.88l2.533 3.88h1.38v-4.58c0-.199.148-.362.33-.362H104.672c.835 0 1.505.8 1.505 1.79 0 .996-.67 1.797-1.504 1.797s-1.505-.81-1.505-1.815c0-.34.085-.657.23-.928h-1.378c-.079.313-.122.648-.122 1.002 0 1.772 1.21 3.139 2.775 3.139 1.584 0 2.774-1.367 2.774-3.195 0-1.805-1.147-3.138-2.714-3.185" transform="translate(-80 -45) translate(80 45)"></path></g></g></g></g></svg>